<?xml version="1.0" encoding="utf-8"?>
<!-- Generator: Adobe Illustrator 25.4.1, SVG Export Plug-In . SVG Version: 6.00 Build 0)  -->
<svg version="1.1" xmlns="http://www.w3.org/2000/svg" xmlns:xlink="http://www.w3.org/1999/xlink" x="0px" y="0px"
	 viewBox="0 0 267.8 267.3" style="enable-background:new 0 0 267.8 267.3;" xml:space="preserve">
<style type="text/css">
	.Dodaj_x0020_cień{fill:none;}
	.Blask_x0020_zewnętrzny_x0020__x0028_5_x0020_pkt_x002E__x0029_{fill:none;}
	.Jive_GS{fill:#A7D0E3;}
	.st0{display:none;}
	.st1{display:inline;fill:#EB5A94;}
	.st2{fill:#1BA038;}
</style>
<g id="pole_ochronne" class="st0">
</g>
<g id="Warstwa_1">
	<g>
		<path class="st2" d="M226.4,41.2C175.3-9.9,92.5-9.9,41.4,41.2c-51.1,51.1-51.1,133.9,0,184.9s133.9,51.1,184.9,0
			S277.4,92.3,226.4,41.2z M133.9,229.8c-53.1,0-96.1-43-96.1-96.1s43-96.1,96.1-96.1h0c5.1,0,9.1,4.1,9.1,9.1
			c0,1.7-0.5,3.3-1.3,4.7l0,0l0,0c-12.6,20.8-10,48.4,8,66.4c18.1,18.1,45.7,20.7,66.5,7.9l0,0l0,0c1.3-0.8,2.9-1.2,4.6-1.2
			c5.1,0,9.1,4.1,9.1,9.1v0C230,186.7,187,229.8,133.9,229.8z"/>
	</g>
</g>
<g id="Approved_Delivery">
</g>
</svg>
